<svg xmlns="http://www.w3.org/2000/svg" viewBox="0 0 32 32" width="32" height="32" role="img" aria-label="Ghosxt">
  <title>Ghosxt</title>
  <!-- Red flame backdrop, simplified for small sizes -->
  <path d="M22 3 Q26 6 26 11 Q28 9 29 13 Q30 17 27 20 Q29 22 27 25 Q24 27 22 26 L8 26 Q4 26 4 22 L4 11 Q4 7 8 6 Q11 4 14 5 Q17 2 22 3 Z" fill="#ff0000"/>
  <!-- Mask body: angular shield with diagonal facet split -->
  <path d="M7 11 L16 9 L25 11 L25 22 L16 25 L7 22 Z" fill="#0a0a0a"/>
  <!-- Diagonal facet highlight (subtle red wedge across the mask top) -->
  <path d="M16 9 L25 11 L20 14 L16 12 Z" fill="#c20000"/>
  <!-- Left eye socket -->
  <ellipse cx="12" cy="17" rx="2.8" ry="3.2" fill="#ffffff"/>
  <!-- Right eye socket -->
  <ellipse cx="20" cy="17" rx="2.8" ry="3.2" fill="#ffffff"/>
  <!-- Red inner-eye accent crescents -->
  <path d="M11 17 Q11.5 19.5 13.5 19 Q13 17 12.5 15.5 Z" fill="#ff0000"/>
  <path d="M19 17 Q19.5 19.5 21.5 19 Q21 17 20.5 15.5 Z" fill="#ff0000"/>
</svg>
